<svg xmlns="http://www.w3.org/2000/svg" viewBox="0 0 1024 1024" width="1024" height="1024" role="img"><title>Second brain — constellation icon</title><desc>Three connected blue four-point stars of three sizes forming a triangle on a deep-space squircle.</desc><defs><clipPath id="sq"><path d="M924.00,512.00L923.94,607.95L923.77,638.60L923.49,660.85L923.10,678.95L922.59,694.46L921.96,708.17L921.23,720.52L920.37,731.81L919.41,742.23L918.33,751.94L917.13,761.02L915.81,769.57L914.38,777.64L912.83,785.29L911.16,792.56L909.36,799.49L907.45,806.10L905.41,812.41L903.25,818.45L900.96,824.24L898.55,829.78L896.00,835.10L893.32,840.21L890.51,845.11L887.56,849.81L884.48,854.33L881.25,858.67L877.87,862.83L874.34,866.83L870.67,870.67L866.83,874.34L862.83,877.87L858.67,881.25L854.33,884.48L849.81,887.56L845.11,890.51L840.21,893.32L835.10,896.00L829.78,898.55L824.24,900.96L818.45,903.25L812.41,905.41L806.10,907.45L799.49,909.36L792.56,911.16L785.29,912.83L777.64,914.38L769.57,915.81L761.02,917.13L751.94,918.33L742.23,919.41L731.81,920.37L720.52,921.23L708.17,921.96L694.46,922.59L678.95,923.10L660.85,923.49L638.60,923.77L607.95,923.94L512.00,924.00L416.05,923.94L385.40,923.77L363.15,923.49L345.05,923.10L329.54,922.59L315.83,921.96L303.48,921.23L292.19,920.37L281.77,919.41L272.06,918.33L262.98,917.13L254.43,915.81L246.36,914.38L238.71,912.83L231.44,911.16L224.51,909.36L217.90,907.45L211.59,905.41L205.55,903.25L199.76,900.96L194.22,898.55L188.90,896.00L183.79,893.32L178.89,890.51L174.19,887.56L169.67,884.48L165.33,881.25L161.17,877.87L157.17,874.34L153.33,870.67L149.66,866.83L146.13,862.83L142.75,858.67L139.52,854.33L136.44,849.81L133.49,845.11L130.68,840.21L128.00,835.10L125.45,829.78L123.04,824.24L120.75,818.45L118.59,812.41L116.55,806.10L114.64,799.49L112.84,792.56L111.17,785.29L109.62,777.64L108.19,769.57L106.87,761.02L105.67,751.94L104.59,742.23L103.63,731.81L102.77,720.52L102.04,708.17L101.41,694.46L100.90,678.95L100.51,660.85L100.23,638.60L100.06,607.95L100.00,512.00L100.06,416.05L100.23,385.40L100.51,363.15L100.90,345.05L101.41,329.54L102.04,315.83L102.77,303.48L103.63,292.19L104.59,281.77L105.67,272.06L106.87,262.98L108.19,254.43L109.62,246.36L111.17,238.71L112.84,231.44L114.64,224.51L116.55,217.90L118.59,211.59L120.75,205.55L123.04,199.76L125.45,194.22L128.00,188.90L130.68,183.79L133.49,178.89L136.44,174.19L139.52,169.67L142.75,165.33L146.13,161.17L149.66,157.17L153.33,153.33L157.17,149.66L161.17,146.13L165.33,142.75L169.67,139.52L174.19,136.44L178.89,133.49L183.79,130.68L188.90,128.00L194.22,125.45L199.76,123.04L205.55,120.75L211.59,118.59L217.90,116.55L224.51,114.64L231.44,112.84L238.71,111.17L246.36,109.62L254.43,108.19L262.98,106.87L272.06,105.67L281.77,104.59L292.19,103.63L303.48,102.77L315.83,102.04L329.54,101.41L345.05,100.90L363.15,100.51L385.40,100.23L416.05,100.06L512.00,100.00L607.95,100.06L638.60,100.23L660.85,100.51L678.95,100.90L694.46,101.41L708.17,102.04L720.52,102.77L731.81,103.63L742.23,104.59L751.94,105.67L761.02,106.87L769.57,108.19L777.64,109.62L785.29,111.17L792.56,112.84L799.49,114.64L806.10,116.55L812.41,118.59L818.45,120.75L824.24,123.04L829.78,125.45L835.10,128.00L840.21,130.68L845.11,133.49L849.81,136.44L854.33,139.52L858.67,142.75L862.83,146.13L866.83,149.66L870.67,153.33L874.34,157.17L877.87,161.17L881.25,165.33L884.48,169.67L887.56,174.19L890.51,178.89L893.32,183.79L896.00,188.90L898.55,194.22L900.96,199.76L903.25,205.55L905.41,211.59L907.45,217.90L909.36,224.51L911.16,231.44L912.83,238.71L914.38,246.36L915.81,254.43L917.13,262.98L918.33,272.06L919.41,281.77L920.37,292.19L921.23,303.48L921.96,315.83L922.59,329.54L923.10,345.05L923.49,363.15L923.77,385.40L923.94,416.05Z"/></clipPath><filter id="gB" x="-60%" y="-60%" width="220%" height="220%"><feDropShadow dx="0" dy="0" stdDeviation="0.42" flood-color="#6aa5ff" flood-opacity="1"/></filter><filter id="gS" x="-60%" y="-60%" width="220%" height="220%"><feDropShadow dx="0" dy="0" stdDeviation="0.30" flood-color="#6aa5ff" flood-opacity="1"/></filter></defs><g clip-path="url(#sq)"><g transform="translate(64.174,64.174) scale(8.95652)"><rect x="4" y="4" width="92" height="92" fill="#05060a"/><circle cx="9" cy="9" r="0.3" fill="#cfd6ff" opacity="0.12"/><circle cx="52" cy="67" r="0.4" fill="#cfd6ff" opacity="0.23"/><circle cx="88" cy="37" r="0.5" fill="#cfd6ff" opacity="0.34"/><circle cx="42" cy="89" r="0.6" fill="#cfd6ff" opacity="0.17"/><circle cx="78" cy="59" r="0.7" fill="#cfd6ff" opacity="0.28"/><circle cx="32" cy="29" r="0.8" fill="#cfd6ff" opacity="0.39"/><circle cx="68" cy="81" r="0.3" fill="#cfd6ff" opacity="0.22"/><circle cx="22" cy="57" r="0.4" fill="#cfd6ff" opacity="0.33"/><circle cx="65" cy="27" r="0.5" fill="#cfd6ff" opacity="0.16"/><line x1="36" y1="62" x2="60" y2="33" stroke="#6aa5ff" stroke-width="1.1" stroke-linecap="round" opacity="0.5"/><line x1="60" y1="33" x2="71" y2="61" stroke="#6aa5ff" stroke-width="1.1" stroke-linecap="round" opacity="0.5"/><line x1="71" y1="61" x2="36" y2="62" stroke="#6aa5ff" stroke-width="1.1" stroke-linecap="round" opacity="0.5"/><path d="M36.000,47.000L39.288,58.712L51.000,62.000L39.288,65.288L36.000,77.000L32.712,65.288L21.000,62.000L32.712,58.712Z" fill="#6aa5ff" filter="url(#gB)"/><path d="M60.000,22.800L62.236,30.764L70.200,33.000L62.236,35.236L60.000,43.200L57.764,35.236L49.800,33.000L57.764,30.764Z" fill="#6aa5ff" filter="url(#gS)"/><path d="M71.000,55.300L72.249,59.751L76.700,61.000L72.249,62.249L71.000,66.700L69.751,62.249L65.300,61.000L69.751,59.751Z" fill="#6aa5ff" filter="url(#gS)"/><circle cx="36" cy="62" r="2.400" fill="#f0f5ff" opacity="0.95"/><circle cx="60" cy="33" r="1.632" fill="#f0f5ff" opacity="0.95"/><circle cx="71" cy="61" r="0.912" fill="#f0f5ff" opacity="0.95"/></g></g><path d="M924.00,512.00L923.94,607.95L923.77,638.60L923.49,660.85L923.10,678.95L922.59,694.46L921.96,708.17L921.23,720.52L920.37,731.81L919.41,742.23L918.33,751.94L917.13,761.02L915.81,769.57L914.38,777.64L912.83,785.29L911.16,792.56L909.36,799.49L907.45,806.10L905.41,812.41L903.25,818.45L900.96,824.24L898.55,829.78L896.00,835.10L893.32,840.21L890.51,845.11L887.56,849.81L884.48,854.33L881.25,858.67L877.87,862.83L874.34,866.83L870.67,870.67L866.83,874.34L862.83,877.87L858.67,881.25L854.33,884.48L849.81,887.56L845.11,890.51L840.21,893.32L835.10,896.00L829.78,898.55L824.24,900.96L818.45,903.25L812.41,905.41L806.10,907.45L799.49,909.36L792.56,911.16L785.29,912.83L777.64,914.38L769.57,915.81L761.02,917.13L751.94,918.33L742.23,919.41L731.81,920.37L720.52,921.23L708.17,921.96L694.46,922.59L678.95,923.10L660.85,923.49L638.60,923.77L607.95,923.94L512.00,924.00L416.05,923.94L385.40,923.77L363.15,923.49L345.05,923.10L329.54,922.59L315.83,921.96L303.48,921.23L292.19,920.37L281.77,919.41L272.06,918.33L262.98,917.13L254.43,915.81L246.36,914.38L238.71,912.83L231.44,911.16L224.51,909.36L217.90,907.45L211.59,905.41L205.55,903.25L199.76,900.96L194.22,898.55L188.90,896.00L183.79,893.32L178.89,890.51L174.19,887.56L169.67,884.48L165.33,881.25L161.17,877.87L157.17,874.34L153.33,870.67L149.66,866.83L146.13,862.83L142.75,858.67L139.52,854.33L136.44,849.81L133.49,845.11L130.68,840.21L128.00,835.10L125.45,829.78L123.04,824.24L120.75,818.45L118.59,812.41L116.55,806.10L114.64,799.49L112.84,792.56L111.17,785.29L109.62,777.64L108.19,769.57L106.87,761.02L105.67,751.94L104.59,742.23L103.63,731.81L102.77,720.52L102.04,708.17L101.41,694.46L100.90,678.95L100.51,660.85L100.23,638.60L100.06,607.95L100.00,512.00L100.06,416.05L100.23,385.40L100.51,363.15L100.90,345.05L101.41,329.54L102.04,315.83L102.77,303.48L103.63,292.19L104.59,281.77L105.67,272.06L106.87,262.98L108.19,254.43L109.62,246.36L111.17,238.71L112.84,231.44L114.64,224.51L116.55,217.90L118.59,211.59L120.75,205.55L123.04,199.76L125.45,194.22L128.00,188.90L130.68,183.79L133.49,178.89L136.44,174.19L139.52,169.67L142.75,165.33L146.13,161.17L149.66,157.17L153.33,153.33L157.17,149.66L161.17,146.13L165.33,142.75L169.67,139.52L174.19,136.44L178.89,133.49L183.79,130.68L188.90,128.00L194.22,125.45L199.76,123.04L205.55,120.75L211.59,118.59L217.90,116.55L224.51,114.64L231.44,112.84L238.71,111.17L246.36,109.62L254.43,108.19L262.98,106.87L272.06,105.67L281.77,104.59L292.19,103.63L303.48,102.77L315.83,102.04L329.54,101.41L345.05,100.90L363.15,100.51L385.40,100.23L416.05,100.06L512.00,100.00L607.95,100.06L638.60,100.23L660.85,100.51L678.95,100.90L694.46,101.41L708.17,102.04L720.52,102.77L731.81,103.63L742.23,104.59L751.94,105.67L761.02,106.87L769.57,108.19L777.64,109.62L785.29,111.17L792.56,112.84L799.49,114.64L806.10,116.55L812.41,118.59L818.45,120.75L824.24,123.04L829.78,125.45L835.10,128.00L840.21,130.68L845.11,133.49L849.81,136.44L854.33,139.52L858.67,142.75L862.83,146.13L866.83,149.66L870.67,153.33L874.34,157.17L877.87,161.17L881.25,165.33L884.48,169.67L887.56,174.19L890.51,178.89L893.32,183.79L896.00,188.90L898.55,194.22L900.96,199.76L903.25,205.55L905.41,211.59L907.45,217.90L909.36,224.51L911.16,231.44L912.83,238.71L914.38,246.36L915.81,254.43L917.13,262.98L918.33,272.06L919.41,281.77L920.37,292.19L921.23,303.48L921.96,315.83L922.59,329.54L923.10,345.05L923.49,363.15L923.77,385.40L923.94,416.05Z" fill="none" stroke="rgba(255,255,255,0.09)" stroke-width="2"/></svg>